<svg width="512" height="512" viewBox="0 0 512 512" fill="none" xmlns="http://www.w3.org/2000/svg">
<rect width="512" height="512" rx="1" fill="#EAD2C6"/>
<path d="M240.4 159V341H162L161.16 321.12C169 310.2 183 278.28 188.88 243.84L174.88 242.44C162.56 309.36 134.28 345.48 96.76 345.48C60.36 345.48 41.6 319.16 41.6 271.84V159H120V271.84C120 290.88 122.52 301.24 132.04 301.24C150.52 301.24 162 250.56 162 159H240.4ZM268.313 341V159H346.713L347.553 178.88C339.713 189.8 325.713 221.72 319.833 256.16L333.833 257.56C346.153 190.64 374.433 154.52 411.953 154.52C448.353 154.52 467.113 180.84 467.113 228.16V341H388.713V228.16C388.713 209.12 386.193 198.76 376.673 198.76C358.193 198.76 346.713 249.44 346.713 341H268.313Z" fill="#44564A"/>
</svg>
